<svg width="68" height="78" viewBox="0 0 68 78" fill="none" xmlns="http://www.w3.org/2000/svg">
<path d="M19.1458 77.9902C13.9279 67.1726 16.7081 60.9765 20.717 55.1363C25.1077 48.7403 26.2433 42.4125 26.2433 42.4125C26.2433 42.4125 29.699 46.8829 28.3138 53.8785C34.4128 47.1169 35.5679 36.3383 34.6428 32.2091C48.4316 41.808 54.325 62.5901 46.3855 77.9951C88.6329 54.1905 56.8947 18.5689 51.3685 14.5567C53.2089 18.5689 53.5614 25.3598 49.8364 28.6601C43.5367 4.875 27.9663 0 27.9663 0C29.8067 12.2655 21.2897 25.6815 13.0762 35.7045C12.7874 30.8149 12.479 27.4365 9.89941 22.7565C9.32182 31.6436 2.50331 38.8879 0.65306 47.7896C-1.8482 59.8455 2.52778 68.6741 19.1409 78L19.1458 77.9902Z" fill="#353E56"/>
</svg>
