<svg width="12" height="12" viewBox="0 0 12 12" fill="none" xmlns="http://www.w3.org/2000/svg">
<path opacity="0.8" fill-rule="evenodd" clip-rule="evenodd" d="M2.80017 5.40588C2.80017 3.95987 3.962 2.80005 5.37994 2.80005C6.79789 2.80005 7.95972 3.95987 7.95972 5.40588C7.95972 6.85189 6.79789 8.01171 5.37994 8.01171C3.962 8.01171 2.80017 6.85189 2.80017 5.40588ZM5.37994 0.800049C2.84378 0.800049 0.800171 2.869 0.800171 5.40588C0.800171 7.94276 2.84378 10.0117 5.37994 10.0117C6.42635 10.0117 7.3889 9.65951 8.15867 9.06755L9.95984 10.8819C10.214 11.1379 10.6261 11.1379 10.8803 10.8819C11.1345 10.6258 11.1345 10.2107 10.8803 9.95468L9.07123 8.13242C9.63006 7.36821 9.95972 6.42479 9.95972 5.40588C9.95972 2.869 7.91611 0.800049 5.37994 0.800049Z" fill="#96A0BB"/>
</svg>
