<svg width="18" height="18" viewBox="0 0 18 18" fill="none" xmlns="http://www.w3.org/2000/svg">
<path d="M15 15.6042C14.9686 13.7606 14.3419 12.0843 13.2277 10.8706C12.1199 9.66431 10.6186 9 8.99993 9C7.38122 9 5.87994 9.66431 4.77219 10.8706C3.65902 12.083 3.03273 13.757 3 15.5983C3.62945 15.8872 6.23422 17 8.99993 17C11.9906 17 14.4163 15.8938 15 15.6042Z" fill="#B6BCCD"/>
<path d="M9 7.3125C10.7086 7.3125 12.0938 5.92738 12.0938 4.21875C12.0938 2.51012 10.7086 1.125 9 1.125C7.29137 1.125 5.90625 2.51012 5.90625 4.21875C5.90625 5.92738 7.29137 7.3125 9 7.3125Z" fill="#B6BCCD"/>
</svg>
