<svg width="48" height="48" viewBox="0 0 48 48" fill="none" xmlns="http://www.w3.org/2000/svg">
<path d="M48 24C48 37.2548 37.2548 48 24 48C10.7452 48 0 37.2548 0 24C0 10.7452 10.7452 0 24 0C37.2548 0 48 10.7452 48 24Z" fill="white"/>
<path fill-rule="evenodd" clip-rule="evenodd" d="M24 42.2687C34.0895 42.2687 42.2687 34.0895 42.2687 24C42.2687 13.9105 34.0895 5.73134 24 5.73134C13.9105 5.73134 5.73134 13.9105 5.73134 24C5.73134 34.0895 13.9105 42.2687 24 42.2687ZM24 48C37.2548 48 48 37.2548 48 24C48 10.7452 37.2548 0 24 0C10.7452 0 0 10.7452 0 24C0 37.2548 10.7452 48 24 48Z" fill="#0180CD"/>
<path d="M30.6269 35.2836C30.6985 34.1731 28.1194 32.7313 26.8209 32.1493L27.5821 30.8507C29.7313 31.5224 39.9403 33.2687 33.403 36.3582C31.4298 37.2907 26.2985 37.2239 24 37.1194C26.1791 36.9701 30.5552 36.394 30.6269 35.2836Z" fill="#0180CD"/>
<path d="M18.7612 22.8806C16.7194 27.2508 20.5672 34.2239 22.7015 37.0746L25.3626 36.4354C25.3626 36.2414 24.7244 35.2695 24.5373 32.931C24.2687 29.5728 28.9781 25.1618 28.9781 18.535C28.9781 14.3597 26.7805 9.34314 25.3626 6.95508C25.273 7.47747 24.8861 8.5129 24.4478 12.1791C23.9553 16.2985 21.3135 17.4179 18.7612 22.8806Z" fill="#FAE013"/>
<path d="M20.8961 24.3694C19.4632 27.3783 22.1344 33.8507 23.2836 36.9402L24.1344 36.7164C24.0896 36.6119 23.9374 36.1701 23.6866 35.2387C23.3732 34.0746 22.9526 28.959 23.5408 26.4755C24.3119 23.2198 25.0319 23.1209 25.34 21.4777C25.6087 20.0449 25.6269 18.9719 25.597 16.8227C23.2267 23.1627 22.4447 21.1173 20.8961 24.3694Z" fill="#DD2A1B"/>
<path d="M15.8507 34.3881C14.597 33.1343 16.7164 32.0298 17.8656 31.7015C11.7761 31.5672 9.04475 33.3134 11.8209 35.7314C14.6098 38.1604 27.2239 38.6866 33.2686 38.5522C18.2686 37.7312 17.1044 35.6418 15.8507 34.3881Z" fill="#0180CD"/>
</svg>
