<svg width="13" height="13" viewBox="0 0 13 13" fill="none" xmlns="http://www.w3.org/2000/svg">
<path opacity="0.8" fill-rule="evenodd" clip-rule="evenodd" d="M2.00024 5.29266C2.00024 3.46732 3.46735 2 5.26188 2C7.0564 2 8.52351 3.46732 8.52351 5.29266C8.52351 7.118 7.0564 8.58532 5.26188 8.58532C3.46735 8.58532 2.00024 7.118 2.00024 5.29266ZM5.26188 0C2.34913 0 0.000244141 2.37646 0.000244141 5.29266C0.000244141 8.20886 2.34913 10.5853 5.26188 10.5853C6.45491 10.5853 7.55335 10.1866 8.43453 9.51548L10.7141 11.8117C11.0167 12.1165 11.5073 12.1165 11.8099 11.8117C12.1125 11.5069 12.1125 11.0127 11.8099 10.7079L9.52033 8.40163C10.1516 7.5279 10.5235 6.45301 10.5235 5.29266C10.5235 2.37646 8.17463 0 5.26188 0Z" fill="#96A0BB"/>
</svg>
