<svg width="50" height="50" viewBox="0 0 50 50" fill="none" xmlns="http://www.w3.org/2000/svg">
<path d="M32 31.6042C31.9634 29.7606 31.2322 28.0843 29.9323 26.8706C28.6399 25.6643 26.8884 25 24.9999 25C23.1114 25 21.3599 25.6643 20.0676 26.8706C18.7689 28.083 18.0382 29.757 18 31.5983C18.7344 31.8872 21.7733 33 24.9999 33C28.4891 33 31.319 31.8938 32 31.6042Z" fill="#B6BCCD"/>
<path d="M25.5 23C27.433 23 29 21.433 29 19.5C29 17.567 27.433 16 25.5 16C23.567 16 22 17.567 22 19.5C22 21.433 23.567 23 25.5 23Z" fill="#B6BCCD"/>
</svg>
